<svg xmlns="http://www.w3.org/2000/svg" x="0px" y="0px"
width="50" height="50"
viewBox="0 0 172 172"
style=" fill:#000000;"><g fill="none" fill-rule="nonzero" stroke="none" stroke-width="1" stroke-linecap="butt" stroke-linejoin="miter" stroke-miterlimit="10" stroke-dasharray="" stroke-dashoffset="0" font-family="none" font-weight="none" font-size="none" text-anchor="none" style="mix-blend-mode: normal"><path d="M0,172v-172h172v172z" fill="none"></path><g fill="#c29d23"><path d="M57.79469,6.88c-10.2512,0 -19.95469,10.0448 -19.95469,20.64v29.75735l20.64,-22.87735v-6.88h55.04v6.88l20.64,22.87735v-31.13469c0,-10.4576 -8.80505,-19.26266 -19.26265,-19.26266zM54.19344,49.3089l-31.28922,34.9711l31.28922,34.9711l5.13313,-4.58219l-27.19078,-30.3889l27.19078,-30.3889zM117.80656,49.3089l-5.13313,4.58219l27.19078,30.3889l-27.19078,30.3889l5.13313,4.58219l31.28922,-34.9711zM37.84,111.28265v33.19735c0,12.7968 12.0056,20.64 20.64,20.64h56.41735c10.4576,0 19.26265,-8.80505 19.26265,-19.26265v-34.57469l-20.64,22.87735v6.88h-55.04v-6.88zM86,147.92c2.8552,0 5.16,2.3048 5.16,5.16c0,2.8552 -2.3048,5.16 -5.16,5.16c-2.8552,0 -5.16,-2.3048 -5.16,-5.16c0,-2.8552 2.3048,-5.16 5.16,-5.16z"></path></g></g></svg>